<svg xmlns="http://www.w3.org/2000/svg" width="256" height="256" viewBox="0 0 100 100"><rect width="100" height="100" rx="20" fill="#8b7aa9"></rect><path fill="#fff" d="M19.19 64.70L19.19 64.70L42.44 64.30Q43.32 64.30 43.91 65.80Q44.51 67.29 45.08 68.17L45.08 68.17Q46.44 70.28 49.58 70.28Q52.72 70.28 54.66 68.81Q56.59 67.34 56.59 65.01Q56.59 62.68 55.41 61.82Q54.22 60.96 52.81 60.15Q51.41 59.34 48.66 58.90Q45.91 58.46 45.65 58.37L45.65 58.37L45.74 58.37L43.23 57.71Q40.82 57.27 39.19 56.75L39.19 56.75Q28.69 53.93 24.01 49.67Q19.33 45.41 19.33 38.20L19.33 38.20Q19.33 32.97 21.26 28.80Q23.19 24.62 26.31 21.98L26.31 21.98Q35.32 14.38 51.19 14.38L51.19 14.38Q63.80 14.38 71.01 18.95L71.01 18.95L70.96 18.95Q75.58 22.29 77.29 25.52Q79.00 28.75 79.44 33.50L79.44 33.50L78.30 34.64Q66.74 35.08 57.82 35.08L57.82 35.08Q55.14 35.08 54.61 33.50L54.61 33.50Q54.39 32.84 54.13 32.18L54.13 32.18Q53.52 30.60 50.18 30.60L50.18 30.60L50 30.60Q47.41 30.60 45.56 31.81Q43.72 33.02 43.69 34.16Q43.67 35.30 44.18 36.05Q44.68 36.79 45.25 37.23Q45.83 37.67 47.01 38.13Q48.20 38.60 48.79 38.75Q49.38 38.90 50.66 39.26L50.66 39.26L52.20 39.65Q53.12 39.91 57.58 40.97Q62.04 42.02 65.03 42.99L65.03 42.99L65.03 42.95Q74.39 46.11 77.80 50.83Q81.20 55.56 81.20 61.84L81.20 61.84Q81.20 78.59 61.21 83.55L61.21 83.55Q55.41 85.00 48.81 85.62L48.81 85.62Q40.73 85.62 32.82 83.24Q24.91 80.87 22.23 75.51L22.23 75.51Q20.42 72.92 19.81 70.74Q19.19 68.57 18.80 64.66L18.80 64.66Q18.93 64.70 19.19 64.70Z"></path></svg>